<svg fill="#965891" id="Capa_1" enable-background="new 0 0 512 512" height="512" viewBox="0 0 512 512" width="512" xmlns="http://www.w3.org/2000/svg"><g><path d="m264.262 324.424-31.588 55.279c-1.814 3.175-5.081 5.071-8.738 5.071s-6.924-1.896-8.738-5.071l-31.588-55.279c-2.056-3.597-6.637-4.846-10.233-2.79-3.596 2.055-4.846 6.636-2.791 10.232l31.588 55.279c4.519 7.907 12.654 12.629 21.762 12.629s17.243-4.722 21.762-12.629l31.588-55.279c2.055-3.596.806-8.178-2.791-10.232s-8.178-.806-10.233 2.79z"/><path d="m288.065 0c-4.142 0-7.5 3.358-7.5 7.5v64.646h-11.653c-.057-.034-.145-.094-.26-.195-7.203-6.315-16.764-8.987-26.231-7.335-12.796 2.235-23.282 12.706-25.499 25.461-1.619 9.314.899 18.755 6.91 25.9 6.014 7.149 14.816 11.249 24.151 11.249 7.588 0 14.938-2.786 20.696-7.846.096-.083.171-.138.223-.17h11.662v56.629c0 8.556 6.96 15.516 15.516 15.516h56.629v11.653c-.034.057-.095.146-.195.26-6.315 7.203-8.988 16.764-7.334 26.231 2.235 12.795 12.706 23.281 25.461 25.499 1.851.322 3.707.48 5.548.48 7.427 0 14.626-2.575 20.352-7.391 7.149-6.013 11.249-14.816 11.249-24.151 0-7.589-2.786-14.938-7.846-20.697-.083-.095-.137-.17-.17-.222v-11.662h64.645c4.142 0 7.5-3.358 7.5-7.5.001-101.378-82.476-183.855-183.854-183.855zm111.344 176.354c-8.069 0-14.634 6.565-14.634 14.635v12.241c0 3.579 1.35 7.007 3.903 9.911 1.876 2.135 4.113 5.741 4.113 10.794 0 4.896-2.152 9.516-5.905 12.672-3.805 3.2-8.661 4.483-13.676 3.611-6.532-1.136-12.106-6.729-13.254-13.302-.881-5.046.481-9.933 3.837-13.761 2.562-2.922 3.916-6.365 3.916-9.955v-12.212c0-8.069-6.565-14.635-14.634-14.635h-56.995c-.285 0-.516-.231-.516-.516v-56.995c0-8.069-6.565-14.634-14.634-14.634h-12.242c-3.578 0-7.005 1.35-9.91 3.903-2.135 1.876-5.741 4.113-10.794 4.113-4.897 0-9.516-2.152-12.672-5.905-3.2-3.804-4.482-8.662-3.611-13.676 1.135-6.532 6.729-12.105 13.301-13.253 5.048-.881 9.934.481 13.761 3.837 2.922 2.563 6.364 3.917 9.955 3.917h12.212c8.069 0 14.634-6.565 14.634-14.635v-57.345c87.157 3.827 157.364 74.034 161.19 161.19z"/><path d="m399.677 264.604c-4.101-.558-7.885 2.313-8.445 6.417-8.28 60.686-48.996 112.182-106.26 134.393-9.108 3.533-15.836 10.707-18.784 19.44h-84.502c-2.942-8.733-9.661-15.902-18.755-19.428-32.203-12.483-59.498-34.25-78.932-62.949-19.923-29.42-29.897-63.862-28.843-99.604 1.169-39.623 16.665-77.898 43.632-107.775 26.847-29.743 63.114-49.069 102.118-54.417 4.104-.563 6.975-4.346 6.412-8.449s-4.338-6.976-8.45-6.412c-42.504 5.828-82.001 26.862-111.215 59.228-29.351 32.517-46.216 74.204-47.49 117.383-1.148 38.909 9.715 76.413 31.416 108.458 21.154 31.237 50.868 54.932 85.93 68.524 6.579 2.551 10.83 8.624 10.83 15.472v13.503c0 14.812 10.262 27.265 24.048 30.64v9.44c0 13.196 13.858 23.532 31.548 23.532s31.548-10.337 31.548-23.532v-9.44c13.786-3.375 24.048-15.829 24.048-30.64v-13.5c0-6.849 4.265-12.928 10.864-15.488 62.348-24.183 106.681-80.261 115.698-146.349.561-4.106-2.312-7.886-6.416-8.447zm-175.741 232.396c-10.102 0-16.548-5.053-16.548-8.532v-8.532h33.097v8.532c-.001 3.479-6.448 8.532-16.549 8.532zm24.048-32.064h-48.097c-9.125 0-16.548-7.424-16.548-16.548v-8.533h81.193v8.533c0 9.124-7.423 16.548-16.548 16.548z"/><path d="m183.855 143.258c5.053 0 8.659 2.237 10.794 4.112 2.905 2.554 6.332 3.903 9.911 3.904h11.36c4.142 0 7.5-3.358 7.5-7.5 0-4.143-3.358-7.5-7.5-7.5h-11.146c-.052-.033-.127-.087-.223-.171-5.757-5.059-13.107-7.845-20.696-7.845-9.335 0-18.138 4.101-24.151 11.25-6.011 7.146-8.529 16.586-6.91 25.9 2.217 12.755 12.703 23.225 25.499 25.46 9.468 1.654 19.028-1.019 26.231-7.334.115-.101.203-.161.26-.195h11.653v56.629c0 8.556 6.96 15.516 15.516 15.516h56.629v11.662c-.033.052-.087.127-.171.223-5.059 5.757-7.845 13.107-7.845 20.696 0 9.335 4.1 18.138 11.249 24.151 5.726 4.816 12.924 7.391 20.352 7.391 1.842 0 3.698-.159 5.549-.48 12.756-2.217 23.226-12.702 25.461-25.498 1.654-9.467-1.019-19.028-7.334-26.231-.101-.115-.162-.204-.196-.261v-12.018c0-4.142-3.358-7.5-7.5-7.5s-7.5 3.358-7.5 7.5v12.212c0 3.589 1.354 7.032 3.917 9.954 3.356 3.829 4.719 8.715 3.837 13.761-1.148 6.572-6.722 12.167-13.253 13.302-5.015.871-9.872-.41-13.676-3.611-3.752-3.156-5.905-7.775-5.905-12.672 0-5.054 2.236-8.659 4.113-10.794 2.553-2.906 3.903-6.333 3.903-9.91v-12.242c0-8.069-6.565-14.634-14.634-14.634h-56.995c-.285 0-.516-.231-.516-.516v-56.995c0-8.07-6.565-14.634-14.634-14.634h-12.212c-3.59 0-7.032 1.354-9.955 3.916-3.827 3.356-8.711 4.719-13.761 3.837-6.572-1.147-12.166-6.722-13.301-13.253-.872-5.015.411-9.871 3.611-13.676 3.154-3.754 7.772-5.906 12.669-5.906z"/></g></svg>